HIERARCHY
ROOT ui
{
	 OFFSET 0 0 0
	 CHANNELS 3 XPosition YPosition Z Position
	 EndSite
	 {
	 OFFSET 0 -1 0
	 }
}
ROOT li
{
	 OFFSET 0 0 0
	 CHANNELS 3 XPosition YPosition Z Position
	 EndSite
	 {
	 OFFSET 0 -1 0
	 }
}
ROOT ul
{
	 OFFSET 0 0 0
	 CHANNELS 3 XPosition YPosition Z Position
	 EndSite
	 {
	 OFFSET 0 -1 0
	 }
}
ROOT ll
{
	 OFFSET 0 0 0
	 CHANNELS 3 XPosition YPosition Z Position
	 EndSite
	 {
	 OFFSET 0 -1 0
	 }
}
ROOT tt
{
	 OFFSET 0 0 0
	 CHANNELS 3 XPosition YPosition Z Position
	 EndSite
	 {
	 OFFSET 0 -1 0
	 }
}
ROOT tb
{
	 OFFSET 0 0 0
	 CHANNELS 3 XPosition YPosition Z Position
	 EndSite
	 {
	 OFFSET 0 -1 0
	 }
}
ROOT td
{
	 OFFSET 0 0 0
	 CHANNELS 3 XPosition YPosition Z Position
	 EndSite
	 {
	 OFFSET 0 -1 0
	 }
}
ROOT v
{
	 OFFSET 0 0 0
	 CHANNELS 3 XPosition YPosition Z Position
	 EndSite
	 {
	 OFFSET 0 -1 0
	 }
}
ROOT bn
{
	 OFFSET 0 0 0
	 CHANNELS 3 XPosition YPosition Z Position
	 EndSite
	 {
	 OFFSET 0 -1 0
	 }
}
MOTION
Frames: 21
Frame Time: 0.002
1.8381999433040618E-4	9.594820141792297E-4	0		0.5922832641601562	-2.738897216796875	0		-0.8524617919921875	0.4036969909667969	0		-0.1859705810546875	-3.371487060546875	0		1.6079984130859375	-0.52191455078125	0		3.014223388671875	-0.5814932250976562	0		4.1880390625	-0.16628042602539062	0		5.85318017578125	0.19181777954101562	0		-0.15700856018066406	5.97125146484375	0		
-0.0039027810096740724	-0.0029753530025482177	0		0.5893705444335937	-2.743806640625	0		-0.8935715942382813	0.4002943420410156	0		-0.2537352294921875	-3.36941259765625	0		1.608011474609375	-0.5218023681640624	0		3.008081298828125	-0.5911863403320312	0		4.19289892578125	-0.17406817626953125	0		5.8531728515625	0.19252455139160157	0		-0.32387203979492185	5.94589794921875	0		
0.0031945459842681887	0.003913523912429809	0		0.5993938598632812	-2.75292431640625	0		-0.8836286010742187	0.39907772827148436	0		-0.22259368896484374	-3.3739208984375	0		1.6287752685546875	-0.5380269165039062	0		3.01689892578125	-0.6041278686523438	0		4.2026572265625	-0.1889470977783203	0		5.8635859375	0.14954141235351562	0		-0.32331005859375	5.9438623046875	0		
0.01304858112335205	-0.005241166114807129	0		0.6046710205078125	-2.74596533203125	0		-0.8745132446289062	0.40788232421875	0		-0.24044996643066407	-3.37764599609375	0		1.6438837890625	-0.5331630859375	0		3.03128125	-0.582165283203125	0		4.2026669921875	-0.18868714904785155	0		5.841880859375	0.2115631561279297	0		-0.15723699951171874	5.97020947265625	0		
0.006250072002410889	0.006872680187225342	0		0.5908983764648438	-2.741707275390625	0		-0.8836660766601563	0.3989813537597656	0		-0.1922744903564453	-3.37941357421875	0		1.6439239501953125	-0.5330682373046876	0		3.0199306640625	-0.60681689453125	0		4.21059228515625	-0.19457669067382813	0		5.8382275390625	0.1966990661621094	0		-0.29187100219726564	5.95132470703125	0		
-0.003884053945541382	-0.002962416887283325	0		0.58798974609375	-2.745625244140625	0		-0.8885833740234375	0.40402294921875	0		-0.259050048828125	-3.37636181640625	0		1.66165478515625	-0.5532645263671875	0		3.017076904296875	-0.60061962890625	0		4.2106240234375	-0.19436878967285157	0		5.8460947265625	0.19689590454101563	0		-0.3063056030273438	5.94053857421875	0		
-0.003851670026779175	-0.002954725980758667	0		0.5949259033203125	-2.758702392578125	0		-0.8836463623046875	0.39891757202148437	0		-0.22999729919433592	-3.383819091796875	0		1.67250341796875	-0.5663619384765625	0		3.030037353515625	-0.606695556640625	0		4.2234423828125	-0.2083962860107422	0		5.84355029296875	0.24066612243652344	0		-0.3264124755859375	5.94684765625	0		
-0.0038113880157470705	-0.002944675922393799	0		0.5960825805664063	-2.756689697265625	0		-0.8836184692382812	0.39890045166015625	0		-0.2617859191894531	-3.379314697265625	0		1.7034945068359375	-0.5707857055664063	0		3.03450341796875	-0.5806576538085938	0		4.218677734375	-0.19617874145507813	0		5.84197705078125	0.21337493896484375	0		-0.3114010009765625	5.956611328125	0		
0.0033443679809570313	0.003958074092864991	0		0.60807958984375	-2.763850341796875	0		-0.8744405517578125	0.4077521057128906	0		-0.24675975036621095	-3.385541259765625	0		1.5535098876953124	-0.5723853759765625	0		3.046311279296875	-0.596762939453125	0		4.2355859375	-0.20533688354492188	0		5.85103857421875	0.17521568298339843	0		-0.2773965148925781	5.96208447265625	0		
0.003397226095199585	0.003975558996200562	0		0.596282470703125	-2.756637451171875	0		-0.8784555053710937	0.40382028198242187	0		-0.22859869384765624	-3.381809326171875	0		1.571255859375	-0.5926251831054687	0		3.047700927734375	-0.5757207641601563	0		4.24053173828125	-0.2123370361328125	0		5.84918408203125	0.21352587890625	0		-0.15927008056640626	5.97125048828125	0		
-0.0036534669399261475	-0.002891861915588379	0		0.634338623046875	-2.758205322265625	0		-0.8474822387695312	0.39835247802734375	0		-0.23156460571289061	-3.384741455078125	0		1.5621156005859376	-0.6054500732421875	0		3.04468505859375	-0.5806305541992187	0		4.25157421875	-0.21345823669433595	0		5.84369970703125	0.24152560424804687	0		-0.293564208984375	5.95236962890625	0		
-0.00359163498878479	-0.0028645110130310057	0		0.5913114624023438	-2.7635048828125	0		-0.852341552734375	0.40345751953125	0		-0.23150331115722655	-3.384714111328125	0		1.5808621826171876	-0.6257176513671875	0		3.028920654296875	-0.5693547973632812	0		4.24373095703125	-0.20730718994140626	0		5.85343798828125	0.19621806335449218	0		-0.29251718139648436	5.9513818359375	0		
-0.0035267019271850585	-0.002831531047821045	0		0.601216552734375	-2.772631103515625	0		-0.883348388671875	0.3989815673828125	0		-0.24750520324707032	-3.387428955078125	0		1.565580810546875	-0.64745751953125	0		3.06683642578125	-0.578934814453125	0		4.24866845703125	-0.21537889099121094	0		5.8571611328125	0.2133719024658203	0		-0.27529071044921877	5.9591494140625	0		
0.0066965270042419435	0.007050241947174072	0		0.5824413452148437	-2.760302734375	0		-0.8682149047851563	0.40279638671875	0		-0.20940435791015624	-3.38298193359375	0		1.590434326171875	-0.66082666015625	0		3.068774169921875	-0.5229546508789062	0		4.27099755859375	-0.1987369384765625	0		5.8608740234375	0.22875059509277343	0		-0.14379150390625	5.981138671875	0		
0.0037208919525146484	0.004144526958465576	0		0.6312872314453125	-2.7720322265625	0		-0.8881190795898437	0.40417138671875	0		-0.254212646484375	-3.3712275390625	0		1.5692772216796875	-0.6744756469726563	0		3.061398193359375	-0.5508463134765625	0		4.27487646484375	-0.2108232421875	0		5.85725634765625	0.21322732543945314	0		-0.2769324340820313	5.96227490234375	0		
0.0037941930294036865	0.004199123859405517	0		0.5914317626953125	-2.7633642578125	0		-0.8831163330078124	0.3991671447753906	0		-0.221246826171875	-3.37368505859375	0		1.577832763671875	-0.7065917358398438	0		3.07481884765625	-0.5280637817382813	0		4.2780390625	-0.2049076232910156	0		5.84393505859375	0.24129701232910156	0		-0.2767319641113281	5.96233544921875	0		
-0.0032408990859985353	-0.0026285688877105712	0		0.5914354248046875	-2.76331787109375	0		-0.8870945434570312	0.3953145141601562	0		-0.2511607208251953	-3.36714697265625	0		1.5694495849609376	-0.7344412231445312	0		3.08191015625	-0.5261908569335938	0		4.282185546875	-0.20001853942871095	0		5.853677734375	0.19578976440429688	0		-0.3105963134765625	5.956939453125	0		
-0.00316823410987854	-0.0025615479946136475	0		0.6012850952148437	-2.77242431640625	0		-0.8829478759765625	0.3993436584472656	0		-0.24507603454589844	-3.360168212890625	0		1.5761536865234376	-0.7565272827148437	0		3.071646240234375	-0.48304534912109376	0		4.28842529296875	-0.18917152404785156	0		5.8659169921875	0.2055263214111328	0		-0.2611051025390625	5.97224169921875	0		
0.004010931968688965	0.004398182868957519	0		0.605329833984375	-2.76843603515625	0		-0.8828656005859375	0.3994425048828125	0		-0.3018686828613281	-3.34419189453125	0		1.588724365234375	-0.7867074584960938	0		3.107553955078125	-0.4926383361816406	0		4.2994873046875	-0.18940956115722657	0		5.8611171875	0.228005126953125	0		-0.12850033569335936	5.99323486328125	0		
-0.003033783912658691	-0.0024166650772094725	0		0.5934146118164062	-2.761193603515625	0		-0.8567747802734375	0.4001343994140625	0		-0.24579580688476563	-3.33699462890625	0		1.5793531494140625	-0.8125411987304687	0		3.100077880859375	-0.4625455627441406	0		4.303640625	-0.18354330444335937	0		5.8477900390625	0.2559888916015625	0		-0.26059841918945315	5.9714033203125	0		
-0.0029751150608062745	-0.0023414011001586916	0		0.5933776245117187	-2.76113916015625	0		-0.8926976318359375	0.4008097839355469	0		-0.25159846496582033	-3.32081787109375	0		1.5669097900390625	-0.8423268432617188	0		3.093962890625	-0.4724815673828125	0		4.31467578125	-0.1847916259765625	0		5.85752978515625	0.21213807678222657	0		-0.2754733276367187	5.9627265625	0		
